<svg xmlns="http://www.w3.org/2000/svg" height="512pt" version="1.1" viewBox="0 -6 512.0003 512" width="512pt">
<g id="surface1">
<path d="M 310.953125 300.722656 C 310.953125 270.421875 286.300781 245.773438 256 245.773438 C 225.703125 245.773438 201.054688 270.421875 201.054688 300.722656 C 201.054688 331.019531 225.703125 355.667969 256 355.667969 C 286.300781 355.667969 310.953125 331.019531 310.953125 300.722656 Z M 310.953125 300.722656 " style=" stroke:none;fill-rule:nonzero;fill:rgb(0%,0%,0%);fill-opacity:1;" />
<path d="M 313.265625 442.9375 C 313.265625 411.359375 287.578125 385.667969 256 385.667969 C 224.421875 385.667969 198.734375 411.359375 198.734375 442.9375 L 198.734375 452.027344 C 198.734375 452.050781 198.734375 500.203125 198.734375 500.203125 L 313.265625 500.203125 C 313.265625 500.203125 313.265625 452.046875 313.265625 452.023438 Z M 313.265625 442.9375 " style=" stroke:none;fill-rule:nonzero;fill:rgb(0%,0%,0%);fill-opacity:1;" />
<path d="M 511.265625 185.460938 C 509.5 180.03125 504.804688 176.070312 499.15625 175.25 L 340.433594 152.1875 L 269.453125 8.359375 C 266.925781 3.242188 261.710938 0 256 0 C 250.292969 0 245.078125 3.242188 242.550781 8.359375 L 171.566406 152.1875 L 12.84375 175.25 C 7.195312 176.070312 2.496094 180.03125 0.734375 185.460938 C -1.03125 190.890625 0.441406 196.851562 4.53125 200.835938 L 119.382812 312.792969 L 92.273438 470.871094 C 91.304688 476.5 93.621094 482.1875 98.238281 485.542969 C 100.851562 487.441406 103.945312 488.40625 107.058594 488.40625 C 109.445312 488.40625 111.839844 487.839844 114.035156 486.683594 L 168.734375 457.925781 L 168.734375 452.09375 C 168.734375 452.085938 168.734375 452.074219 168.734375 452.0625 C 168.734375 452.050781 168.734375 452.039062 168.734375 452.027344 L 168.734375 442.9375 C 168.734375 412.753906 184.136719 386.101562 207.496094 370.425781 C 185.484375 355.058594 171.054688 329.542969 171.054688 300.71875 C 171.054688 253.878906 209.164062 215.769531 256 215.769531 C 302.84375 215.769531 340.953125 253.878906 340.953125 300.71875 C 340.953125 329.542969 326.523438 355.058594 304.507812 370.425781 C 327.867188 386.101562 343.269531 412.753906 343.269531 442.9375 L 343.269531 451.972656 C 343.269531 452.019531 343.269531 452.066406 343.269531 452.113281 L 343.269531 457.925781 L 397.96875 486.683594 C 403.023438 489.339844 409.144531 488.898438 413.765625 485.542969 C 418.382812 482.1875 420.699219 476.5 419.734375 470.871094 L 392.617188 312.792969 L 507.472656 200.835938 C 511.558594 196.851562 513.03125 190.890625 511.265625 185.460938 Z M 511.265625 185.460938 " style=" stroke:none;fill-rule:nonzero;fill:rgb(0%,0%,0%);fill-opacity:1;" />
</g>
</svg>