<svg height="512" viewBox="0 0 16 16" width="512" xmlns="http://www.w3.org/2000/svg"><path d="m14.8862 9.35834-5.5625-3.6734c.99054-.490418 1.67627-1.50677 1.67627-2.68494 0-1.6543-1.3457-3-3-3s-3 1.3457-3 3h2c0-.55127.44873-1 1-1s1 .44873 1 1-.44873 1-1 1c-.552246 0-1 .447754-1 1v.471741l-5.88867 3.89844v.0005493c-.695801.460693-1.11133 1.25488-1.11133 2.12408 0 .669617.246094 1.29889.693848 1.77197.446777.473145 1.04053.733215 1.67188.733215h.0019531l11.2681-.0093384c1.30371-.0010376 2.36426-1.12561 2.36426-2.50671 0-.870239-.416504-1.66443-1.11377-2.12561zm-1.25195 2.64166h-11.2671c-.0512695 0-.129395-.0117188-.219238-.106445-.122559-.129395-.147949-.288086-.147949-.398926 0-.196289.0805664-.367188.21582-.456543l5.78467-3.83008 5.78369 3.81934c.134766.0893555.21582.260254.21582.456543 0 .290039-.192871.516113-.365723.516113z" transform="translate(0 1)"/></svg>