<svg height="512pt" viewBox="-73 0 511 512" width="512pt" xmlns="http://www.w3.org/2000/svg"><path d="m211.578125 356.851562v-3.4375c0-9.300781-6.152344-17.191406-14.597656-19.820312v43.078125c8.445312-2.628906 14.597656-10.519531 14.597656-19.820313zm0 0"/><path d="m166.824219 300.375v-37.234375c-6.882813 3.382813-11.648438 10.445313-11.648438 18.617187 0 8.175782 4.761719 15.238282 11.648438 18.617188zm0 0"/><path d="m334.214844 231.613281-55.453125-80.046875h-184.683594l-56.320313 73.304688c-22.992187 29.925781-35.835937 65.628906-37.148437 103.238281-1.316406 37.875 9.203125 74.296875 30.429687 105.320313 33.332032 48.722656 86.667969 77.34375 146.335938 78.527343 1.359375.027344 2.722656.042969 4.085938.042969 17.503906 0 34.871093-2.242188 51.625-6.660156 33.484374-8.828125 63.414062-26.707032 86.558593-51.703125 27.285157-29.46875 43.714844-67.957031 46.257813-108.375 2.523437-40.148438-8.730469-80.507813-31.6875-113.648438zm-167.390625-13.808593c0-8.328126 6.75-15.078126 15.078125-15.078126 8.324218 0 15.078125 6.75 15.078125 15.078126v13.050781h29.675781c8.328125 0 15.078125 6.75 15.078125 15.078125 0 8.324218-6.75 15.074218-15.078125 15.074218h-29.675781v41.886719c25.175781 3.046875 44.753906 24.53125 44.753906 50.519531v3.4375c0 25.984376-19.578125 47.472657-44.753906 50.519532v9.363281c0 8.328125-6.753907 15.078125-15.078125 15.078125-8.328125 0-15.078125-6.75-15.078125-15.078125v-8.980469h-26.722657c-8.328124 0-15.078124-6.75-15.078124-15.078125 0-8.324219 6.75-15.074219 15.078124-15.074219h26.722657v-45.769531c-23.738281-4.304687-41.800781-25.113281-41.800781-50.074219 0-24.960937 18.0625-45.769531 41.800781-50.074218zm0 0"/><path d="m108.730469 103.214844h157.121093v18.195312h-157.121093zm0 0"/><path d="m280.242188 73.058594 35.257812-49.199219c3.292969-4.59375 3.742188-10.640625 1.15625-15.671875-2.578125-5.027344-7.757812-8.1875-13.410156-8.1875h-56.132813c-4.746093 0-9.214843 2.234375-12.0625 6.03125l-8.753906 11.671875-11.109375-12.597656c-2.859375-3.246094-6.980469-5.105469-11.308594-5.105469h-115.402344c-5.1875 0-10.011718 2.667969-12.769531 7.0625-2.757812 4.390625-3.066406 9.894531-.8125 14.570312l24.820313 51.425782zm0 0"/></svg>