<?xml version="1.0"?>
<svg xmlns="http://www.w3.org/2000/svg" height="512px" viewBox="0 -4 512 512" width="512px" class=""><g><path d="m181.320312 128.851562c10.730469-10.957031 25.707032-17.777343 42.261719-17.777343 2.5625 0 5.082031.179687 7.558594.496093 10.371094-20.34375 31.570313-34.324218 56-34.324218 14.5625 0 27.972656 4.980468 38.636719 13.300781 20.8125-18.546875 33.945312-45.539063 33.945312-75.546875 0-8.285156-6.71875-15-15-15-27.035156 0-52.445312 10.527344-71.5625 29.640625-12.882812 12.882813-21.859375 28.632813-26.34375 45.808594-2.792968-3.96875-5.925781-7.734375-9.425781-11.238281-15.902344-15.898438-37.042969-24.65625-59.53125-24.65625h-10.578125c-8.285156 0-15 6.714843-15 15v10.574218c-.003906 25.308594 11.09375 48.203125 29.039062 63.722656zm0 0" data-original="#000000" class="active-path" data-old_color="#000000" fill="#CFD8DC"/><path d="m15 159.890625h115.109375c8.285156 0 15-6.714844 15-15 0-8.28125-6.714844-15-15-15h-115.109375c-8.285156 0-15 6.71875-15 15 0 8.285156 6.714844 15 15 15zm0 0" data-original="#000000" class="active-path" data-old_color="#000000" fill="#CFD8DC"/><path d="m381.597656 159.890625h115.402344c8.285156 0 15-6.714844 15-15 0-8.28125-6.714844-15-15-15h-115.402344c-8.285156 0-15 6.71875-15 15 0 8.285156 6.714844 15 15 15zm0 0" data-original="#000000" class="active-path" data-old_color="#000000" fill="#CFD8DC"/><path d="m77.121094 236.378906h-60.992188c-8.28125 0-15 6.714844-15 15 0 8.28125 6.71875 15 15 15h15.496094v68.925782c0 8.285156 6.714844 15 15 15s15-6.714844 15-15v-68.925782h15.496094c8.285156 0 15-6.71875 15-15 0-8.285156-6.714844-15-15-15zm0 0" data-original="#000000" class="active-path" data-old_color="#000000" fill="#CFD8DC"/><path d="m265.105469 246.089844c-2.417969-5.40625-7.78125-8.886719-13.699219-8.886719-.03125 0-.066406 0-.101562 0-5.953126.042969-11.320313 3.601563-13.675782 9.070313l-35.761718 83.101562c-3.277344 7.609375.238281 16.433594 7.847656 19.710938 1.933594.828124 3.945312 1.222656 5.921875 1.222656 5.8125 0 11.34375-3.398438 13.785156-9.074219l1.914063-4.445313h41.417968l2.070313 4.632813c3.378906 7.566406 12.246093 10.960937 19.8125 7.582031 7.5625-3.378906 10.957031-12.25 7.582031-19.8125zm-20.859375 60.699218 7.414062-17.230468 7.695313 17.230468zm0 0" data-original="#000000" class="active-path" data-old_color="#000000" fill="#CFD8DC"/><path d="m130.832031 335.304688v-16.8125h31.34375v16.8125c0 8.285156 6.71875 15 15 15 8.285157 0 15-6.714844 15-15v-83.429688c0-8.28125-6.714843-15-15-15-8.28125 0-15 6.71875-15 15v36.617188h-31.34375v-36.617188c0-8.28125-6.714843-15-15-15-8.28125 0-15 6.71875-15 15v83.429688c0 8.285156 6.71875 15 15 15 8.285157 0 15-6.714844 15-15zm0 0" data-original="#000000" class="active-path" data-old_color="#000000" fill="#CFD8DC"/><path d="m339.09375 335.3125v-40.679688l39.234375 49.945313c2.898437 3.691406 7.28125 5.734375 11.800781 5.734375 1.636719 0 3.289063-.269531 4.898438-.824219 6.042968-2.089843 10.097656-7.78125 10.097656-14.175781l-.003906-84.054688c0-8.285156-6.714844-15-15-15-8.28125 0-15 6.714844-15 15v40.679688l-39.234375-49.945312c-3.949219-5.027344-10.652344-7-16.699219-4.910157-6.042969 2.089844-10.097656 7.78125-10.097656 14.175781v84.054688c0 8.285156 6.71875 15 15 15 8.285156 0 15.003906-6.714844 15.003906-15zm0 0" data-original="#000000" class="active-path" data-old_color="#000000" fill="#CFD8DC"/><path d="m486.96875 275.425781 16.285156-11.320312c6.796875-4.722657 8.484375-14.058594 3.769532-20.863281-4.714844-6.800782-14.050782-8.496094-20.859376-3.792969l-26.445312 18.28125c-.445312.308593-.867188.636719-1.269531.984375l-10.183594 7.074218v-14.347656c0-8.285156-6.714844-15-15-15s-15 6.714844-15 15v83.429688c0 8.277344 6.707031 14.992187 14.984375 15h.015625c8.273437 0 14.984375-6.695313 15-14.96875l.066406-32.625 13.527344-9.402344 20.851563 47.632812c3.324218 7.589844 12.167968 11.046876 19.757812 7.726563 7.589844-3.324219 11.046875-12.167969 7.726562-19.757813zm0 0" data-original="#000000" class="active-path" data-old_color="#000000" fill="#CFD8DC"/><path d="m195.15625 391.785156c-6.632812-4.96875-16.03125-3.621094-21 3.007813l-20.304688 27.085937-20.300781-27.085937c-4.96875-6.628907-14.371093-7.976563-21-3.007813-6.628906 4.96875-7.976562 14.371094-3.007812 21l29.308593 39.101563v35.832031c0 8.285156 6.714844 15 15 15 8.285157 0 15-6.714844 15-15v-35.828125l29.308594-39.105469c4.96875-6.628906 3.625-16.03125-3.003906-21zm0 0" data-original="#000000" class="active-path" data-old_color="#000000" fill="#CFD8DC"/><path d="m253.492188 388.171875c-12.738282-.097656-25.101563 4.820313-33.90625 13.546875-8.351563 8.273438-12.953126 19.183594-12.953126 30.71875v26.160156c0 24.492188 20.898438 44.613282 46.582032 44.847656h.441406c12.589844 0 24.765625-4.921874 33.46875-13.546874 8.351562-8.273438 12.949219-19.183594 12.949219-30.71875v-26.160157c.003906-24.492187-20.894531-44.613281-46.582031-44.847656zm16.585937 71.003906c0 4.449219-2.210937 7.574219-4.066406 9.414063-3.121094 3.089844-7.613281 4.855468-12.347657 4.855468-.058593 0-.113281 0-.171874 0-9.296876-.085937-16.859376-6.746093-16.859376-14.847656v-26.160156c0-4.449219 2.210938-7.574219 4.066407-9.410156 3.121093-3.09375 7.613281-4.855469 12.34375-4.855469h.175781c9.296875.085937 16.859375 6.746094 16.859375 14.847656zm0 0" data-original="#000000" class="active-path" data-old_color="#000000" fill="#CFD8DC"/><path d="m392.453125 388.351562c-8.285156 0-15 6.71875-15 15v55.824219c0 4.449219-2.210937 7.574219-4.066406 9.414063-3.160157 3.128906-7.71875 4.867187-12.519531 4.855468-9.296876-.085937-16.859376-6.746093-16.859376-14.847656v-55.824218c0-8.285157-6.714843-15-15-15-8.28125 0-15 6.714843-15 15v55.824218c0 24.492188 20.898438 44.613282 46.585938 44.847656h.441406c12.585938 0 24.765625-4.921874 33.46875-13.546874 8.347656-8.273438 12.949219-19.183594 12.949219-30.71875v-55.824219c0-8.285157-6.714844-15.003907-15-15.003907zm0 0" data-original="#000000" class="active-path" data-old_color="#000000" fill="#CFD8DC"/><path d="m223.582031 141.074219c-16.007812 0-29.03125 12.878906-29.03125 28.710937 0 15.835938 13.023438 28.714844 29.03125 28.714844 16.007813 0 29.03125-12.878906 29.03125-28.714844 0-15.832031-13.023437-28.710937-29.03125-28.710937zm0 0" data-original="#000000" class="active-path" data-old_color="#000000" fill="#CFD8DC"/><path d="m286.914062 107.148438c-14.894531 0-27.515624 9.8125-31.601562 23.246093 11.703125 9.242188 19.226562 23.460938 19.226562 39.390625 0 .082032-.007812.164063-.007812.246094 3.828125 1.539062 8.003906 2.394531 12.382812 2.394531 18.199219 0 33.003907-14.640625 33.003907-32.640625 0-17.996094-14.804688-32.636718-33.003907-32.636718zm0 0" data-original="#000000" class="active-path" data-old_color="#000000" fill="#CFD8DC"/></g> </svg>
